<svg id="visual" viewBox="0 0 1200 450" width="1200" height="450" xmlns="http://www.w3.org/2000/svg" xmlns:xlink="http://www.w3.org/1999/xlink" version="1.1"><rect x="0" y="0" width="1200" height="450" fill="#ecf0f1"></rect><defs><linearGradient id="grad1_0" x1="62.5%" y1="100%" x2="100%" y2="0%"><stop offset="-3.333333333333332%" stop-color="#0cff00" stop-opacity="1"></stop><stop offset="103.33333333333334%" stop-color="#0cff00" stop-opacity="1"></stop></linearGradient></defs><defs><linearGradient id="grad1_1" x1="62.5%" y1="100%" x2="100%" y2="0%"><stop offset="-3.333333333333332%" stop-color="#0cff00" stop-opacity="1"></stop><stop offset="103.33333333333334%" stop-color="#00ffb5" stop-opacity="1"></stop></linearGradient></defs><defs><linearGradient id="grad1_2" x1="62.5%" y1="100%" x2="100%" y2="0%"><stop offset="-3.333333333333332%" stop-color="#70fef7" stop-opacity="1"></stop><stop offset="103.33333333333334%" stop-color="#00ffb5" stop-opacity="1"></stop></linearGradient></defs><defs><linearGradient id="grad1_3" x1="62.5%" y1="100%" x2="100%" y2="0%"><stop offset="-3.333333333333332%" stop-color="#70fef7" stop-opacity="1"></stop><stop offset="103.33333333333334%" stop-color="#ecf0f1" stop-opacity="1"></stop></linearGradient></defs><defs><linearGradient id="grad2_0" x1="0%" y1="100%" x2="37.5%" y2="0%"><stop offset="-3.333333333333332%" stop-color="#0cff00" stop-opacity="1"></stop><stop offset="103.33333333333334%" stop-color="#0cff00" stop-opacity="1"></stop></linearGradient></defs><defs><linearGradient id="grad2_1" x1="0%" y1="100%" x2="37.5%" y2="0%"><stop offset="-3.333333333333332%" stop-color="#00ffb5" stop-opacity="1"></stop><stop offset="103.33333333333334%" stop-color="#0cff00" stop-opacity="1"></stop></linearGradient></defs><defs><linearGradient id="grad2_2" x1="0%" y1="100%" x2="37.5%" y2="0%"><stop offset="-3.333333333333332%" stop-color="#00ffb5" stop-opacity="1"></stop><stop offset="103.33333333333334%" stop-color="#70fef7" stop-opacity="1"></stop></linearGradient></defs><defs><linearGradient id="grad2_3" x1="0%" y1="100%" x2="37.5%" y2="0%"><stop offset="-3.333333333333332%" stop-color="#ecf0f1" stop-opacity="1"></stop><stop offset="103.33333333333334%" stop-color="#70fef7" stop-opacity="1"></stop></linearGradient></defs><g transform="translate(1200, 450)"><path d="M-270 0C-264.8 -27.4 -259.6 -54.7 -252 -81.9C-244.4 -109 -234.5 -136 -218.4 -158.7C-202.4 -181.5 -180.3 -200 -156.9 -216C-133.6 -232 -108.9 -245.4 -82.5 -253.9C-56.1 -262.5 -28.1 -266.2 0 -270L0 0Z" fill="#b6f8fd"></path><path d="M-202.5 0C-198.6 -20.5 -194.7 -41.1 -189 -61.4C-183.3 -81.8 -175.8 -102 -163.8 -119C-151.8 -136.1 -135.2 -150 -117.7 -162C-100.2 -174 -81.7 -184 -61.9 -190.4C-42.1 -196.9 -21.1 -199.7 0 -202.5L0 0Z" fill="#00ffdf"></path><path d="M-135 0C-132.4 -13.7 -129.8 -27.4 -126 -40.9C-122.2 -54.5 -117.2 -68 -109.2 -79.4C-101.2 -90.7 -90.2 -100 -78.5 -108C-66.8 -116 -54.4 -122.7 -41.3 -127C-28.1 -131.2 -14 -133.1 0 -135L0 0Z" fill="#00ff79"></path><path d="M-67.5 0C-66.2 -6.8 -64.9 -13.7 -63 -20.5C-61.1 -27.3 -58.6 -34 -54.6 -39.7C-50.6 -45.4 -45.1 -50 -39.2 -54C-33.4 -58 -27.2 -61.3 -20.6 -63.5C-14 -65.6 -7 -66.6 0 -67.5L0 0Z" fill="#0cff00"></path></g><g transform="translate(0, 0)"><path d="M270 0C269.9 29.9 269.7 59.8 256.8 83.4C243.9 107 218.2 124.3 199 144.6C179.9 164.9 167.3 188.1 148.1 203.9C128.9 219.7 103.1 228 77.3 237.8C51.5 247.5 25.7 258.8 0 270L0 0Z" fill="#b6f8fd"></path><path d="M202.5 0C202.4 22.4 202.3 44.9 192.6 62.6C182.9 80.3 163.6 93.2 149.3 108.4C134.9 123.6 125.5 141.1 111.1 152.9C96.7 164.7 77.3 171 57.9 178.3C38.6 185.7 19.3 194.1 0 202.5L0 0Z" fill="#00ffdf"></path><path d="M135 0C134.9 15 134.9 29.9 128.4 41.7C121.9 53.5 109.1 62.2 99.5 72.3C89.9 82.4 83.7 94 74.1 101.9C64.5 109.8 51.5 114 38.6 118.9C25.7 123.8 12.9 129.4 0 135L0 0Z" fill="#00ff79"></path><path d="M67.5 0C67.5 7.5 67.4 15 64.2 20.9C61 26.8 54.5 31.1 49.8 36.1C45 41.2 41.8 47 37 51C32.2 54.9 25.8 57 19.3 59.4C12.9 61.9 6.4 64.7 0 67.5L0 0Z" fill="#0cff00"></path></g></svg>