<svg id="visual" viewBox="0 0 1200 1000" width="1200" height="1000" xmlns="http://www.w3.org/2000/svg" xmlns:xlink="http://www.w3.org/1999/xlink" version="1.1"><rect x="0" y="0" width="1200" height="1000" fill="#001122"></rect><defs><linearGradient id="grad1_0" x1="16.7%" y1="0%" x2="100%" y2="100%"><stop offset="26%" stop-color="#001122" stop-opacity="1"></stop><stop offset="74%" stop-color="#001122" stop-opacity="1"></stop></linearGradient></defs><defs><linearGradient id="grad2_0" x1="0%" y1="0%" x2="83.3%" y2="100%"><stop offset="26%" stop-color="#001122" stop-opacity="1"></stop><stop offset="74%" stop-color="#001122" stop-opacity="1"></stop></linearGradient></defs><g transform="translate(1200, 0)"><path d="M0 663.9C-66.9 610.4 -133.8 556.9 -221.2 534C-308.5 511.1 -416.3 518.9 -469.4 469.4C-522.5 419.9 -520.9 313.2 -544.2 225.4C-567.5 137.6 -615.7 68.8 -663.9 0L0 0Z" fill="#00ff38"></path></g><g transform="translate(0, 1000)"><path d="M0 -663.9C90.8 -645 181.6 -626.1 237.3 -572.8C292.9 -519.5 313.4 -431.7 379.7 -379.7C446.1 -327.7 558.3 -311.4 613.3 -254.1C668.3 -196.7 666.1 -98.4 663.9 0L0 0Z" fill="#00ff38"></path></g></svg>