<svg id="visual" viewBox="0 0 1200 600" width="1200" height="600" xmlns="http://www.w3.org/2000/svg" xmlns:xlink="http://www.w3.org/1999/xlink" version="1.1"><path d="M0 103L18.2 109C36.3 115 72.7 127 109 139C145.3 151 181.7 163 218 166C254.3 169 290.7 163 327 159C363.3 155 399.7 153 436 144C472.3 135 508.7 119 545.2 114C581.7 109 618.3 115 654.8 110C691.3 105 727.7 89 764 87C800.3 85 836.7 97 873 115C909.3 133 945.7 157 982 172C1018.3 187 1054.7 193 1091 194C1127.3 195 1163.7 191 1181.8 189L1200 187L1200 0L1181.8 0C1163.7 0 1127.3 0 1091 0C1054.7 0 1018.3 0 982 0C945.7 0 909.3 0 873 0C836.7 0 800.3 0 764 0C727.7 0 691.3 0 654.8 0C618.3 0 581.7 0 545.2 0C508.7 0 472.3 0 436 0C399.7 0 363.3 0 327 0C290.7 0 254.3 0 218 0C181.7 0 145.3 0 109 0C72.7 0 36.3 0 18.2 0L0 0Z" fill="#6198ff"></path><path d="M0 217L18.2 237C36.3 257 72.7 297 109 325C145.3 353 181.7 369 218 375C254.3 381 290.7 377 327 360C363.3 343 399.7 313 436 302C472.3 291 508.7 299 545.2 290C581.7 281 618.3 255 654.8 271C691.3 287 727.7 345 764 369C800.3 393 836.7 383 873 374C909.3 365 945.7 357 982 362C1018.3 367 1054.7 385 1091 386C1127.3 387 1163.7 371 1181.8 363L1200 355L1200 185L1181.8 187C1163.7 189 1127.3 193 1091 192C1054.7 191 1018.3 185 982 170C945.7 155 909.3 131 873 113C836.7 95 800.3 83 764 85C727.7 87 691.3 103 654.8 108C618.3 113 581.7 107 545.2 112C508.7 117 472.3 133 436 142C399.7 151 363.3 153 327 157C290.7 161 254.3 167 218 164C181.7 161 145.3 149 109 137C72.7 125 36.3 113 18.2 107L0 101Z" fill="#2d77ff"></path><path d="M0 457L18.2 461C36.3 465 72.7 473 109 478C145.3 483 181.7 485 218 489C254.3 493 290.7 499 327 502C363.3 505 399.7 505 436 506C472.3 507 508.7 509 545.2 506C581.7 503 618.3 495 654.8 498C691.3 501 727.7 515 764 516C800.3 517 836.7 505 873 506C909.3 507 945.7 521 982 530C1018.3 539 1054.7 543 1091 542C1127.3 541 1163.7 535 1181.8 532L1200 529L1200 353L1181.8 361C1163.7 369 1127.3 385 1091 384C1054.7 383 1018.3 365 982 360C945.7 355 909.3 363 873 372C836.7 381 800.3 391 764 367C727.7 343 691.3 285 654.8 269C618.3 253 581.7 279 545.2 288C508.7 297 472.3 289 436 300C399.7 311 363.3 341 327 358C290.7 375 254.3 379 218 373C181.7 367 145.3 351 109 323C72.7 295 36.3 255 18.2 235L0 215Z" fill="#005de8"></path><path d="M0 601L18.2 601C36.3 601 72.7 601 109 601C145.3 601 181.7 601 218 601C254.3 601 290.7 601 327 601C363.3 601 399.7 601 436 601C472.3 601 508.7 601 545.2 601C581.7 601 618.3 601 654.8 601C691.3 601 727.7 601 764 601C800.3 601 836.7 601 873 601C909.3 601 945.7 601 982 601C1018.3 601 1054.7 601 1091 601C1127.3 601 1163.7 601 1181.8 601L1200 601L1200 527L1181.8 530C1163.7 533 1127.3 539 1091 540C1054.7 541 1018.3 537 982 528C945.7 519 909.3 505 873 504C836.7 503 800.3 515 764 514C727.7 513 691.3 499 654.8 496C618.3 493 581.7 501 545.2 504C508.7 507 472.3 505 436 504C399.7 503 363.3 503 327 500C290.7 497 254.3 491 218 487C181.7 483 145.3 481 109 476C72.7 471 36.3 463 18.2 459L0 455Z" fill="#004cbb"></path></svg>